<?xml version="1.0" encoding="UTF-8" standalone="no"?>
<!-- Created with Inkscape (http://www.inkscape.org/) -->

<svg
   xmlns:dc="http://purl.org/dc/elements/1.1/"
   xmlns:cc="http://creativecommons.org/ns#"
   xmlns:rdf="http://www.w3.org/1999/02/22-rdf-syntax-ns#"
   xmlns:svg="http://www.w3.org/2000/svg"
   xmlns="http://www.w3.org/2000/svg"
   xmlns:sodipodi="http://sodipodi.sourceforge.net/DTD/sodipodi-0.dtd"
   xmlns:inkscape="http://www.inkscape.org/namespaces/inkscape"
   width="646.37384"
   height="205.5153"
   viewBox="0 0 171.0201 54.376267"
   version="1.1"
   id="svg2766"
   inkscape:version="0.92.2 (5c3e80d, 2017-08-06)"
   sodipodi:docname="logobieivi-grises.svg">
  <defs
     id="defs2760" />
  <sodipodi:namedview
     id="base"
     pagecolor="#ffffff"
     bordercolor="#666666"
     borderopacity="1.0"
     inkscape:pageopacity="0.0"
     inkscape:pageshadow="2"
     inkscape:zoom="0.35"
     inkscape:cx="-153.18033"
     inkscape:cy="-348.32758"
     inkscape:document-units="mm"
     inkscape:current-layer="layer1"
     showgrid="false"
     inkscape:window-width="1366"
     inkscape:window-height="705"
     inkscape:window-x="-8"
     inkscape:window-y="-8"
     inkscape:window-maximized="1"
     units="px"
     fit-margin-top="0"
     fit-margin-left="0"
     fit-margin-right="0"
     fit-margin-bottom="0"
     inkscape:pagecheckerboard="true" />
  <metadata
     id="metadata2763">
    <rdf:RDF>
      <cc:Work
         rdf:about="">
        <dc:format>image/svg+xml</dc:format>
        <dc:type
           rdf:resource="http://purl.org/dc/dcmitype/StillImage" />
        <dc:title></dc:title>
      </cc:Work>
    </rdf:RDF>
  </metadata>
  <g
     inkscape:label="Capa 1"
     inkscape:groupmode="layer"
     id="layer1"
     transform="translate(-1.9992257,-2.2959816)">
    <g
       id="g5177"
       transform="translate(1.5119143)">
      <path
         inkscape:connector-curvature="0"
         id="path4706"
         d="M 26.621971,11.76392 26.723475,56.672215 50.312833,6.8411189 Z"
         style="fill:#72727f;fill-opacity:0.94117647;stroke:#d45500;stroke-width:0;stroke-linecap:butt;stroke-linejoin:miter;stroke-miterlimit:4;stroke-dasharray:none;stroke-opacity:1" />
      <path
         inkscape:connector-curvature="0"
         id="path4708"
         d="M 2.0972799,5.1964396 25.48325,10.625197 49.174271,5.4093587 Z"
         style="fill:#5a5a5a;fill-opacity:1;stroke:#399271;stroke-width:0;stroke-linecap:butt;stroke-linejoin:miter;stroke-miterlimit:4;stroke-dasharray:none;stroke-opacity:1" />
      <path
         inkscape:connector-curvature="0"
         id="path4706-0"
         d="M 25.48325,11.76392 25.382568,56.672215 1.9989076,6.8411189 Z"
         style="fill:#353535;fill-opacity:1;stroke:#800080;stroke-width:0;stroke-linecap:butt;stroke-linejoin:miter;stroke-miterlimit:4;stroke-dasharray:none;stroke-opacity:1" />
      <path
         inkscape:connector-curvature="0"
         id="path4725"
         d="M 38.471878,33.547156 29.125857,53.820777 H 47.5303 l -6.901678,-23.72445 -0.28744,-0.575168 z"
         style="fill:#5a5a5a;fill-opacity:1;stroke:#399271;stroke-width:0.2151902;stroke-linecap:butt;stroke-linejoin:miter;stroke-miterlimit:4;stroke-dasharray:none;stroke-opacity:1" />
      <path
         inkscape:connector-curvature="0"
         id="path2128"
         d="m 58.955671,29.818711 c -0.953984,-0.954004 -0.953984,-23.0065575 0,-23.9605384 0.971063,-0.9710698 11.770745,-0.8950901 14.151253,0.099447 2.278751,0.9521064 3.450313,3.4703632 2.980293,6.4060684 -0.184903,1.154943 -0.819246,2.495144 -1.409625,2.978204 -1.039498,0.850545 -1.013378,0.935417 0.826575,2.686116 1.656675,1.576324 1.899991,2.162751 1.899991,4.579184 0,6.092879 -2.700916,7.886351 -11.876619,7.886351 -3.836559,0 -6.132746,-0.235837 -6.571868,-0.674947 z m 12.85538,-4.299487 c 1.619071,-1.311064 1.751488,-4.402454 0.236035,-5.510601 -0.654774,-0.478773 -2.579836,-0.76406 -5.155826,-0.76406 h -4.110902 v 3.655951 3.655952 h 3.874867 c 2.927687,0 4.187986,-0.253555 5.155826,-1.037242 z M 70.529563,14.431816 c 1.457939,-1.02117 1.634758,-3.159015 0.366199,-4.427568 C 70.275577,9.3840659 68.933261,9.1203947 66.396134,9.1203947 H 62.780358 V 12.2139 15.307394 h 3.249572 c 2.030807,0 3.718415,-0.328392 4.499633,-0.875578 z m 11.394016,14.973893 c -0.841871,-1.573043 -0.762132,-16.505706 0.0927,-17.36056 1.013462,-1.013455 2.586239,-0.813144 3.242442,0.413002 0.320235,0.598349 0.582243,4.503398 0.582243,8.677856 0,6.149987 -0.167685,7.75762 -0.883857,8.473774 -1.189981,1.190001 -2.328442,1.113393 -3.033531,-0.204072 z m 19.795311,0.617211 c -0.54939,-0.348704 -0.67939,-3.239418 -0.56246,-12.506 l 0.15211,-12.0524654 7.30644,-0.158372 c 6.29356,-0.1364822 7.40158,-0.028234 7.99314,0.7807606 0.47888,0.6548974 0.51712,1.256185 0.12632,1.9863991 -0.48901,0.9137564 -1.27471,1.0472209 -6.16519,1.0472209 h -5.60474 v 3.0934938 3.093494 h 4.45947 c 4.6659,0 6.65646,0.882219 5.97826,2.649572 -0.1724,0.449443 -0.31357,0.923004 -0.31357,1.052388 0,0.129452 -2.27794,0.23522 -5.06206,0.23522 h -5.0621 v 3.655941 3.655951 h 5.60474 c 4.96188,0 5.6714,0.124549 6.18586,1.085868 0.43866,0.819625 0.36473,1.302251 -0.30161,1.96859 -0.70235,0.702335 -2.22507,0.880985 -7.45137,0.874126 -3.61275,-0.0046 -6.8902,-0.212701 -7.28321,-0.46213 z m 20.1192,-0.07864 c -0.66885,-0.421964 -0.88149,-2.159791 -1.02607,-8.387095 -0.19027,-8.192785 0.21264,-10.1869 2.05828,-10.1869 2.05751,0 2.34252,1.113119 2.34252,9.148743 0,9.288049 -0.66189,11.136629 -3.37473,9.425252 z m 26.56925,-0.153697 c -0.31147,-0.386688 -2.6461,-5.632875 -5.18805,-11.658164 -4.80005,-11.3776673 -5.03328,-12.6679729 -2.29011,-12.6679729 1.08143,0 1.76004,1.2009521 5.00079,8.8496369 2.06228,4.867294 3.90711,8.853683 4.09962,8.858656 0.19259,0.0046 1.80947,-3.724296 3.59325,-8.287202 1.78377,-4.562896 3.50238,-8.6247846 3.81914,-9.0263898 0.88435,-1.1211774 2.89767,-0.5809867 3.09877,0.8314213 0.16623,1.1668429 -7.48695,19.8742215 -9.21995,22.5375455 -0.91627,1.40811 -2.05522,1.628002 -2.91346,0.562469 z m 16.73971,0.153697 c -0.66887,-0.421964 -0.88148,-2.159791 -1.0261,-8.387095 -0.19027,-8.192785 0.21269,-10.1869 2.05829,-10.1869 2.05751,0 2.34254,1.113119 2.34254,9.148743 0,9.288049 -0.6619,11.136629 -3.37473,9.425252 z M 81.557342,7.7471939 c -0.624474,-1.6273504 0.05142,-2.8424421 1.685299,-3.0297337 2.050109,-0.2349574 2.838232,0.5583083 2.377695,2.3932396 -0.289658,1.1540863 -0.706527,1.4473173 -2.057553,1.4473173 -0.956674,0 -1.829757,-0.3530134 -2.005441,-0.8108232 z m 39.472398,-0.202803 c -0.60807,-1.915849 0.21934,-3.0006883 2.14566,-2.8132367 1.53836,0.1496503 1.7562,0.3801841 1.7562,1.8582499 0,1.4830152 -0.21558,1.7082794 -1.77992,1.8600445 -1.35147,0.1311555 -1.86222,-0.086759 -2.12194,-0.9050577 z m 43.30893,0 c -0.60804,-1.915849 0.21935,-3.0006883 2.1457,-2.8132367 1.53835,0.1496503 1.75616,0.3801841 1.75616,1.8582499 0,1.4830152 -0.21552,1.7082794 -1.77989,1.8600445 -1.35149,0.1311555 -1.86222,-0.086759 -2.12197,-0.9050577 z"
         style="fill:#000000;stroke-width:0.56245387" />
      <path
         inkscape:connector-curvature="0"
         id="path2167"
         d="M 64.768078,46.267389 V 39.7787 l 3.213569,0.186034 c 3.883473,0.224819 4.83266,0.856649 4.83266,3.216911 0,1.301268 -0.194736,1.67736 -1.15341,2.227587 l -1.153412,0.661938 1.253995,0.626858 c 0.891786,0.445762 1.292101,0.960405 1.385978,1.781779 0.35412,3.098661 -1.229696,4.276237 -5.751436,4.276237 h -2.627944 z m 6.436989,4.477108 c 0.44254,-0.442561 0.804612,-1.24696 0.804612,-1.787597 0,-1.424993 -1.418183,-2.23553 -3.911468,-2.23553 h -2.123199 v 2.413872 2.413872 h 2.212714 c 1.676295,0 2.40777,-0.195053 3.017341,-0.804617 z m -0.229891,-5.862254 c 0.907371,-0.907378 0.780892,-2.436504 -0.261945,-3.166947 -0.506357,-0.354671 -1.727705,-0.626275 -2.816172,-0.626275 h -1.922047 v 2.212703 2.212715 h 2.183975 c 1.44902,0 2.396731,-0.212736 2.816189,-0.632196 z m 6.761595,7.456787 c -1.287279,-0.517158 -1.70397,-1.94654 -1.70397,-5.844993 0,-2.748208 0.114802,-3.393458 0.603459,-3.393458 0.487806,0 0.603475,0.638231 0.603475,3.330132 0,3.998357 0.563575,5.118403 2.57547,5.118403 2.167509,0 2.831805,-1.12375 2.997591,-5.07084 0.107345,-2.556276 0.278579,-3.377695 0.704042,-3.377695 0.450144,0 0.562177,0.962177 0.562177,4.827732 0,4.023117 -0.10051,4.827733 -0.60346,4.827733 -0.331904,0 -0.603474,-0.271559 -0.603474,-0.60346 0,-0.750857 -0.379392,-0.747371 -1.384396,0.01223 -0.870209,0.658178 -2.371824,0.7277 -3.750914,0.173666 z m 11.361386,-0.144609 c -1.449523,-0.631545 -2.202953,-2.10393 -2.202953,-4.305031 0,-2.921805 1.666363,-4.788822 4.274145,-4.788822 1.561144,0 3.369772,2.034716 3.369772,3.791004 v 1.43903 h -3.218498 c -3.631406,0 -4.037012,0.424993 -2.178961,2.283048 0.922558,0.922547 1.262107,1.013181 3.017343,0.80528 1.498996,-0.17753 1.977814,-0.104134 1.977814,0.303358 0,1.059543 -3.037266,1.344144 -5.038662,0.472133 z m 4.234035,-5.743112 c 0,-1.584577 -2.476066,-2.761536 -3.862321,-1.835926 -0.43848,0.292785 -1.367734,1.842304 -1.367734,2.280682 0,0.125154 1.176751,0.227619 2.615026,0.227619 2.17536,0 2.615029,-0.113164 2.615029,-0.672375 z m 4.023127,1.47698 c 0,-4.023105 0.100475,-4.827721 0.603482,-4.827721 0.349721,0 0.603459,0.364524 0.603459,0.866982 0,0.855894 0.01029,0.857186 0.846887,0.100475 1.122003,-1.015398 4.076723,-1.043814 5.072873,-0.04869 1.02667,1.025502 1.33894,8.736701 0.3538,8.736701 -0.53505,0 -0.64117,-0.551186 -0.64117,-3.330108 0,-3.99838 -0.56358,-5.118415 -2.5755,-5.118415 -2.167515,0 -2.83182,1.123749 -2.997599,5.07084 -0.107334,2.556275 -0.278565,3.377683 -0.704038,3.377683 -0.45014,0 -0.562194,-0.962188 -0.562194,-4.827732 z m 11.758941,4.332807 c -0.50269,-0.242239 -1.0169,-0.850556 -1.14269,-1.351803 -0.53579,-2.134723 0.78263,-3.246505 4.35113,-3.669142 2.03544,-0.241073 2.3152,-0.656121 1.48623,-2.205045 -0.39434,-0.736856 -0.68821,-0.799953 -2.65113,-0.569248 -2.8191,0.33133 -2.80415,-0.579398 0.0186,-1.133225 1.63082,-0.319944 2.04449,-0.258402 2.98737,0.444539 1.04939,0.782338 1.09916,0.983906 1.20908,4.897391 0.0758,2.693797 -0.0312,4.081458 -0.31436,4.081458 -0.23595,0 -0.53149,-0.267078 -0.65676,-0.593515 -0.20074,-0.523136 -0.36382,-0.523136 -1.37547,0 -1.33134,0.688458 -2.62067,0.720967 -3.91203,0.09853 z m 4.35832,-1.541358 c 0.4621,-0.462119 0.77386,-1.219229 0.70405,-1.709822 -0.111,-0.779412 -0.33312,-0.865942 -1.93572,-0.753933 -2.1815,0.152462 -3.45211,1.300239 -2.79619,2.525858 0.57142,1.067694 2.93448,1.031264 4.02786,-0.06207 z m 12.65892,1.332245 c -0.80986,-2.06287 -4.23513,-11.740248 -4.23513,-11.965398 0,-0.144906 0.29892,-0.204974 0.66426,-0.133498 0.45414,0.08893 1.26131,1.832199 2.55186,5.511423 l 1.88765,5.381309 1.9262,-5.481899 c 1.52364,-4.336167 2.07975,-5.481898 2.6608,-5.481898 0.66299,0 0.59423,0.382253 -0.70553,3.922515 -0.79205,2.157402 -1.81687,5.054037 -2.27736,6.436999 -0.8571,2.574027 -1.87921,3.322348 -2.47275,1.810379 z m 7.83421,-4.123694 c 0,-4.559524 0.0448,-4.827721 0.80463,-4.827721 0.7599,0 0.80462,0.268197 0.80462,4.827721 0,4.559523 -0.0448,4.827732 -0.80462,4.827732 -0.75992,0 -0.80463,-0.268209 -0.80463,-4.827732 z m 4.82773,-2.011536 c 0,-5.81117 0.0908,-6.839313 0.60346,-6.839313 0.47378,0 0.60347,0.555336 0.60347,2.5842 v 2.584189 l 1.22924,-0.613221 c 1.63611,-0.816218 3.72715,-0.403377 4.788,0.945248 0.61064,0.776325 0.82205,1.637969 0.82205,3.350433 0,1.712486 -0.21141,2.574141 -0.82205,3.350432 -1.07817,1.370698 -3.15155,1.761638 -4.84981,0.914431 -1.57631,-0.786362 -1.56973,-0.786202 -1.56973,-0.04058 0,0.331901 -0.18105,0.603471 -0.40232,0.603471 -0.25244,0 -0.40231,-2.547965 -0.40231,-6.83929 z m 5.80417,5.000759 c 1.33632,-1.336326 1.31256,-5.117992 -0.0384,-6.105807 -1.13768,-0.831913 -3.22151,-0.625281 -3.9326,0.389923 -0.92696,1.323443 -0.82343,4.541062 0.17838,5.542846 0.96203,0.962063 2.9145,1.051131 3.7926,0.173038 z m 5.05823,-2.989223 c 0,-4.023105 0.10059,-4.827721 0.60347,-4.827721 0.38702,0 0.60807,0.396815 0.61625,1.106363 0.0103,0.951672 0.0814,1.017101 0.5029,0.468017 1.0872,-1.416054 3.50744,-2.086006 3.50744,-0.970921 0,0.331912 -0.34729,0.603471 -0.77173,0.603471 -2.30078,0 -3.25139,1.640884 -3.25139,5.612379 0,2.252814 -0.12408,2.836144 -0.60347,2.836144 -0.5029,0 -0.60347,-0.804605 -0.60347,-4.827732 z m 7.73343,4.201468 c -0.62467,-0.437543 -0.89414,-1.036887 -0.89414,-1.988742 0,-1.772886 1.06139,-2.51309 4.09586,-2.856399 2.49465,-0.282246 2.74958,-0.605688 1.68033,-2.132232 -0.58775,-0.839137 -0.87987,-0.917437 -2.64333,-0.708575 -1.45495,0.172305 -1.94014,0.105047 -1.82312,-0.252493 0.24516,-0.749234 2.96274,-1.299873 4.22473,-0.856054 1.60634,0.564915 2.09684,1.940871 2.10352,5.900547 0.005,2.863509 -0.10654,3.520212 -0.59754,3.520212 -0.3319,0 -0.60346,-0.271547 -0.60346,-0.603448 0,-0.744205 -0.0405,-0.744262 -1.46269,-0.0034 -1.4851,0.774542 -2.95579,0.767215 -4.08016,-0.02035 z m 4.46543,-1.306137 c 0.36108,-0.398999 0.70598,-1.168409 0.7664,-1.709799 0.0999,-0.895273 -0.0176,-0.974271 -1.29824,-0.872755 -2.43854,0.193304 -3.15717,0.469503 -3.42606,1.316722 -0.1437,0.452643 -0.0431,1.085856 0.22359,1.40715 0.68041,0.819819 2.94194,0.734249 3.73431,-0.141249 z m -27.75389,-9.962812 c -0.33531,-0.873795 0.51595,-1.695535 1.12526,-1.086234 0.51496,0.514963 0.19594,1.716738 -0.45573,1.716738 -0.23516,0 -0.53645,-0.283732 -0.66953,-0.630504 z"
         style="fill:#000000;stroke-width:0.40231124" />
    </g>
  </g>
</svg>
