<?xml version="1.0" encoding="UTF-8" standalone="no"?>
<!-- Created with Inkscape (http://www.inkscape.org/) -->

<svg
   xmlns:dc="http://purl.org/dc/elements/1.1/"
   xmlns:cc="http://creativecommons.org/ns#"
   xmlns:rdf="http://www.w3.org/1999/02/22-rdf-syntax-ns#"
   xmlns:svg="http://www.w3.org/2000/svg"
   xmlns="http://www.w3.org/2000/svg"
   xmlns:sodipodi="http://sodipodi.sourceforge.net/DTD/sodipodi-0.dtd"
   xmlns:inkscape="http://www.inkscape.org/namespaces/inkscape"
   width="156mm"
   height="56mm"
   viewBox="0 0 156 56"
   version="1.1"
   id="svg2180"
   inkscape:version="0.92.2 (5c3e80d, 2017-08-06)"
   sodipodi:docname="logo-bieibi-grises.svg">
  <defs
     id="defs2174" />
  <sodipodi:namedview
     id="base"
     pagecolor="#ffffff"
     bordercolor="#666666"
     borderopacity="1.0"
     inkscape:pageopacity="0.0"
     inkscape:pageshadow="2"
     inkscape:zoom="0.98994949"
     inkscape:cx="-36.662389"
     inkscape:cy="34.752879"
     inkscape:document-units="mm"
     inkscape:current-layer="layer1"
     showgrid="false"
     inkscape:window-width="1366"
     inkscape:window-height="705"
     inkscape:window-x="-8"
     inkscape:window-y="-8"
     inkscape:window-maximized="1"
     inkscape:pagecheckerboard="true" />
  <metadata
     id="metadata2177">
    <rdf:RDF>
      <cc:Work
         rdf:about="">
        <dc:format>image/svg+xml</dc:format>
        <dc:type
           rdf:resource="http://purl.org/dc/dcmitype/StillImage" />
        <dc:title></dc:title>
      </cc:Work>
    </rdf:RDF>
  </metadata>
  <g
     inkscape:label="Capa 1"
     inkscape:groupmode="layer"
     id="layer1"
     transform="translate(0,-241)">
    <rect
       style="opacity:1;fill:#5a5a5a;fill-opacity:1;stroke:#5a5a5a;stroke-width:2.57264686;stroke-linecap:round;stroke-linejoin:round;stroke-miterlimit:4;stroke-dasharray:none;stroke-opacity:1"
       id="rect4727-4"
       width="50.88142"
       height="51.887718"
       x="2.074652"
       y="242.99283"
       ry="0.79332268"
       rx="0.79332268" />
    <path
       style="fill:#727272;fill-opacity:1;stroke:#727272;stroke-width:0;stroke-linecap:butt;stroke-linejoin:miter;stroke-miterlimit:4;stroke-dasharray:none;stroke-opacity:1"
       d="m 27.966414,253.40195 0.0888,39.28754 20.636897,-43.5942 z"
       id="path4706-5"
       inkscape:connector-curvature="0" />
    <path
       style="fill:#ffffff;stroke:#008080;stroke-width:0;stroke-linecap:butt;stroke-linejoin:miter;stroke-miterlimit:4;stroke-dasharray:none;stroke-opacity:1"
       d="m 6.511251,247.65646 20.458964,4.74929 20.725837,-4.56302 z"
       id="path4708-9"
       inkscape:connector-curvature="0" />
    <path
       style="fill:#353535;fill-opacity:1;stroke:#353535;stroke-width:0;stroke-linecap:butt;stroke-linejoin:miter;stroke-miterlimit:4;stroke-dasharray:none;stroke-opacity:0"
       d="M 26.970215,253.40195 26.882135,292.68949 6.42519,249.09529 Z"
       id="path4706-0-6"
       inkscape:connector-curvature="0" />
    <path
       style="fill:#ffffff;stroke:#ffffff;stroke-width:0.18825684;stroke-linecap:butt;stroke-linejoin:miter;stroke-miterlimit:4;stroke-dasharray:none;stroke-opacity:1"
       d="m 38.333177,272.45878 -8.176265,17.73616 h 16.10093 l -6.03786,-20.75508 -0.251463,-0.50317 z"
       id="path4725-1"
       inkscape:connector-curvature="0" />
    <path
       style="fill:#ffffff;stroke-width:0.49205673"
       d="m 57.840708,269.197 c -0.834583,-0.83461 -0.834583,-20.12705 0,-20.96163 0.849521,-0.84953 10.297509,-0.78306 12.380071,0.087 1.993539,0.83294 3.018479,3.03601 2.607279,5.60428 -0.16176,1.01039 -0.71671,2.18285 -1.233197,2.60545 -0.909394,0.74409 -0.886542,0.81834 0.723117,2.34992 1.44934,1.37903 1.6622,1.89206 1.6622,4.00605 0,5.3303 -2.362878,6.8993 -10.390143,6.8993 -3.356372,0 -5.365168,-0.20632 -5.749327,-0.59048 z m 11.246389,-3.76137 c 1.416429,-1.14697 1.532271,-3.85144 0.206494,-4.82089 -0.572822,-0.41885 -2.256943,-0.66843 -4.510518,-0.66843 h -3.596381 v 3.19837 3.19837 h 3.389887 c 2.561256,0 3.663815,-0.22182 4.510518,-0.90742 z m -1.121095,-9.6997 c 1.275461,-0.89336 1.43015,-2.76363 0.320366,-3.87341 -0.542563,-0.54256 -1.716874,-0.77323 -3.936453,-0.77323 h -3.163223 v 2.70632 2.70631 h 2.842855 c 1.77663,0 3.253015,-0.28729 3.936455,-0.76599 z m 9.967946,13.09976 c -0.7365,-1.37617 -0.66674,-14.43985 0.0811,-15.18771 0.88662,-0.88661 2.26255,-0.71137 2.83662,0.36131 0.28015,0.52346 0.50937,3.93975 0.50937,7.59173 0,5.38025 -0.1467,6.78668 -0.77323,7.4132 -1.04105,1.04105 -2.03701,0.97404 -2.65386,-0.17853 z m 17.3177,0.53995 c -0.48062,-0.30505 -0.59434,-2.83397 -0.49205,-10.94074 l 0.13307,-10.54397 6.391962,-0.13855 c 5.50586,-0.1194 6.4752,-0.0247 6.99272,0.68304 0.41894,0.57293 0.45239,1.09896 0.11051,1.73778 -0.42781,0.79939 -1.11517,0.91615 -5.39355,0.91615 h -4.903262 v 2.70631 2.70631 h 3.901332 c 4.08191,0 5.82333,0.7718 5.23002,2.31795 -0.15083,0.39319 -0.27433,0.80748 -0.27433,0.92067 0,0.11325 -1.99283,0.20578 -4.42849,0.20578 h -4.428532 v 3.19836 3.19837 h 4.903262 c 4.34084,0 4.96156,0.10896 5.41163,0.94996 0.38376,0.71704 0.31908,1.13927 -0.26386,1.7222 -0.61444,0.61443 -1.94658,0.77072 -6.51876,0.76472 -3.160582,-0.004 -6.027822,-0.18608 -6.371642,-0.40429 z m 17.601082,-0.0688 c -0.58514,-0.36915 -0.77116,-1.88947 -0.89765,-7.33736 -0.16645,-7.16737 0.18603,-8.9119 1.80067,-8.9119 1.79999,0 2.04933,0.9738 2.04933,8.00368 0,8.12555 -0.57905,9.74276 -2.95235,8.24558 z m 23.24382,-0.13446 c -0.27248,-0.33829 -2.31491,-4.92786 -4.53871,-10.19902 -4.19927,-9.95363 -4.40331,-11.08244 -2.00347,-11.08244 0.94607,0 1.53975,1.05064 4.37488,7.74201 1.80417,4.2581 3.4181,7.74555 3.58651,7.7499 0.16849,0.004 1.583,-3.25816 3.14352,-7.24997 1.56051,-3.9918 3.06402,-7.5453 3.34113,-7.89664 0.77367,-0.98085 2.535,-0.50827 2.71093,0.72736 0.14542,1.0208 -6.54988,17.38675 -8.06598,19.71673 -0.80159,1.23187 -1.79798,1.42424 -2.54881,0.49207 z m 14.64456,0.13446 c -0.58515,-0.36915 -0.77115,-1.88947 -0.89767,-7.33736 -0.16646,-7.16737 0.18607,-8.9119 1.80067,-8.9119 1.79999,0 2.04935,0.9738 2.04935,8.00368 0,8.12555 -0.57906,9.74276 -2.95235,8.24558 z M 77.613558,249.88796 c -0.54632,-1.42367 0.045,-2.48668 1.47436,-2.65053 1.79352,-0.20555 2.483,0.48843 2.0801,2.0937 -0.2534,1.00964 -0.61809,1.26617 -1.80002,1.26617 -0.83694,0 -1.60075,-0.30883 -1.75444,-0.70934 z m 34.531992,-0.17742 c -0.53196,-1.67606 0.19189,-2.62512 1.87711,-2.46113 1.34582,0.13092 1.53639,0.3326 1.53639,1.62567 0,1.2974 -0.18859,1.49447 -1.55714,1.62724 -1.18232,0.11474 -1.62914,-0.0759 -1.85636,-0.79178 z m 37.88836,0 c -0.53194,-1.67606 0.19189,-2.62512 1.87714,-2.46113 1.34581,0.13092 1.53636,0.3326 1.53636,1.62567 0,1.2974 -0.18855,1.49447 -1.55712,1.62724 -1.18234,0.11474 -1.62914,-0.0759 -1.85638,-0.79178 z"
       id="path2128-0"
       inkscape:connector-curvature="0" />
    <path
       style="fill:#ffffff;stroke-width:0.35195771"
       d="m 61.338128,283.58694 v -5.67655 l 2.811356,0.16274 c 3.397414,0.19668 4.227801,0.74944 4.227801,2.81428 0,1.13841 -0.170362,1.46743 -1.009049,1.94878 l -1.00905,0.5791 1.097045,0.54839 c 0.780169,0.38997 1.130379,0.84021 1.212509,1.55877 0.309798,2.71083 -1.075788,3.74102 -5.031584,3.74102 h -2.299028 z m 5.63133,3.91676 c 0.387152,-0.38717 0.703906,-1.09089 0.703906,-1.56387 0,-1.24664 -1.240682,-1.95572 -3.421907,-1.95572 H 62.394 v 2.11175 2.11174 h 1.935769 c 1.46649,0 2.106414,-0.17064 2.639689,-0.7039 z m -0.201117,-5.12854 c 0.793803,-0.7938 0.683154,-2.13155 -0.229161,-2.77056 -0.442982,-0.31028 -1.511464,-0.5479 -2.463697,-0.5479 H 62.394 v 1.93576 1.93578 h 1.910628 c 1.267658,0 2.096754,-0.18612 2.463713,-0.55308 z m 5.915307,6.5235 c -1.126161,-0.45244 -1.490699,-1.70292 -1.490699,-5.11343 0,-2.40425 0.100433,-2.96873 0.527931,-2.96873 0.426748,0 0.527938,0.55835 0.527938,2.91332 0,3.49792 0.49304,4.47778 2.25313,4.47778 1.89623,0 2.47738,-0.98309 2.62241,-4.43616 0.0939,-2.23634 0.24372,-2.95494 0.61593,-2.95494 0.3938,0 0.49181,0.84175 0.49181,4.22349 0,3.51958 -0.0879,4.22348 -0.52793,4.22348 -0.29036,0 -0.52794,-0.23757 -0.52794,-0.52792 0,-0.65689 -0.33191,-0.65383 -1.21113,0.0107 -0.76129,0.5758 -2.07496,0.63662 -3.28145,0.15193 z m 9.9394,-0.12651 c -1.26811,-0.5525 -1.92724,-1.8406 -1.92724,-3.76622 0,-2.55611 1.45781,-4.18945 3.73919,-4.18945 1.36575,0 2.94801,1.78006 2.94801,3.31652 v 1.25892 h -2.81567 c -3.17689,0 -3.53173,0.3718 -1.90623,1.9973 0.80709,0.80708 1.10413,0.88637 2.63968,0.70449 1.31138,-0.15531 1.73027,-0.0911 1.73027,0.26539 0,0.92694 -2.65712,1.17592 -4.40801,0.41305 z m 3.70409,-5.0243 c 0,-1.38625 -2.16616,-2.4159 -3.3789,-1.60614 -0.3836,0.25613 -1.19655,1.61172 -1.19655,1.99522 0,0.10949 1.02946,0.19913 2.28772,0.19913 1.90309,0 2.28773,-0.099 2.28773,-0.58821 z m 3.51959,1.29211 c 0,-3.51956 0.0879,-4.22348 0.52794,-4.22348 0.30596,0 0.52794,0.3189 0.52794,0.75848 0,0.74877 0.009,0.7499 0.74088,0.0879 0.98157,-0.88831 3.56649,-0.91317 4.43796,-0.0426 0.89816,0.89714 1.17135,7.6432 0.30952,7.6432 -0.46809,0 -0.56093,-0.48219 -0.56093,-2.9133 0,-3.49794 -0.49304,-4.47779 -2.25314,-4.47779 -1.89623,0 -2.47739,0.9831 -2.62243,4.43617 -0.0939,2.23633 -0.24369,2.95492 -0.61592,2.95492 -0.39379,0 -0.49182,-0.84175 -0.49182,-4.22348 z m 10.287182,3.79052 c -0.439772,-0.21192 -0.889622,-0.74411 -0.999672,-1.18262 -0.46874,-1.86754 0.68468,-2.84016 3.806542,-3.2099 1.78069,-0.21091 2.02543,-0.574 1.30022,-1.92907 -0.34499,-0.64463 -0.60208,-0.69983 -2.31932,-0.49799 -2.466262,0.28985 -2.453192,-0.50688 0.0163,-0.9914 1.42671,-0.2799 1.7886,-0.22606 2.61347,0.38891 0.91805,0.68441 0.96159,0.86076 1.05775,4.28442 0.0663,2.35665 -0.0273,3.57063 -0.27501,3.57063 -0.20642,0 -0.46497,-0.23366 -0.57456,-0.51924 -0.17562,-0.45766 -0.31829,-0.45766 -1.20332,0 -1.16471,0.60229 -2.29267,0.63073 -3.4224,0.0862 z m 3.81283,-1.34845 c 0.40427,-0.40428 0.67701,-1.06663 0.61593,-1.49581 -0.0971,-0.68186 -0.29142,-0.75756 -1.69344,-0.65957 -1.90846,0.13338 -3.020052,1.1375 -2.44623,2.20971 0.49991,0.93407 2.56721,0.90219 3.52374,-0.0543 z m 11.07452,1.1655 c -0.70849,-1.80468 -3.70505,-10.27082 -3.70505,-10.4678 0,-0.12677 0.2615,-0.17931 0.58112,-0.11679 0.3973,0.0778 1.10344,1.60288 2.23246,4.82162 l 1.65139,4.70777 1.68512,-4.79578 c 1.33294,-3.79345 1.81945,-4.79577 2.32777,-4.79577 0.58001,0 0.51986,0.33441 -0.61722,3.43156 -0.69292,1.88739 -1.58947,4.42148 -1.99233,5.63135 -0.74982,2.25185 -1.644,2.90652 -2.16326,1.58378 z m 6.85368,-3.60757 c 0,-3.98885 0.0392,-4.22348 0.70392,-4.22348 0.66479,0 0.70391,0.23463 0.70391,4.22348 0,3.98886 -0.0392,4.2235 -0.70391,4.2235 -0.66481,0 -0.70392,-0.23464 -0.70392,-4.2235 z m 4.22349,-1.75977 c 0,-5.08383 0.0794,-5.9833 0.52793,-5.9833 0.41448,0 0.52794,0.48583 0.52794,2.26077 v 2.26075 l 1.07538,-0.53648 c 1.43134,-0.71406 3.26066,-0.35289 4.18873,0.82694 0.53422,0.67917 0.71917,1.43297 0.71917,2.93109 0,1.49816 -0.18495,2.25197 -0.71917,2.9311 -0.94322,1.19914 -2.7571,1.54114 -4.2428,0.79997 -1.37902,-0.68794 -1.37326,-0.6878 -1.37326,-0.0355 0,0.29036 -0.15839,0.52794 -0.35197,0.52794 -0.22084,0 -0.35195,-2.22906 -0.35195,-5.98328 z m 5.07771,4.37486 c 1.16907,-1.16907 1.14828,-4.47742 -0.0336,-5.3416 -0.99529,-0.72778 -2.8183,-0.54702 -3.44039,0.34112 -0.81094,1.1578 -0.72037,3.9727 0.15605,4.8491 0.84162,0.84166 2.54972,0.91957 3.31792,0.15138 z m 4.42514,-2.61509 c 0,-3.51956 0.088,-4.22348 0.52794,-4.22348 0.33858,0 0.53196,0.34715 0.53912,0.9679 0.009,0.83255 0.0712,0.88979 0.43996,0.40944 0.95112,-1.23883 3.06844,-1.82493 3.06844,-0.8494 0,0.29037 -0.30382,0.52793 -0.67514,0.52793 -2.01281,0 -2.84444,1.43551 -2.84444,4.90994 0,1.97085 -0.10855,2.48117 -0.52794,2.48117 -0.43996,0 -0.52794,-0.7039 -0.52794,-4.2235 z m 6.76551,3.67562 c -0.54649,-0.38279 -0.78223,-0.90712 -0.78223,-1.73984 0,-1.55099 0.92855,-2.19855 3.58322,-2.49889 2.18242,-0.24691 2.40544,-0.52988 1.47002,-1.86536 -0.51419,-0.73411 -0.76975,-0.80261 -2.31249,-0.61988 -1.27285,0.15074 -1.69731,0.0919 -1.59494,-0.22089 0.21448,-0.65547 2.59192,-1.13718 3.69596,-0.74892 1.40529,0.49421 1.8344,1.69795 1.84024,5.16204 0.004,2.5051 -0.0932,3.07962 -0.52275,3.07962 -0.29036,0 -0.52793,-0.23757 -0.52793,-0.52792 0,-0.65106 -0.0354,-0.65112 -1.27962,-0.003 -1.29922,0.6776 -2.58584,0.67119 -3.56948,-0.0178 z m 3.90653,-1.14267 c 0.31589,-0.34906 0.61762,-1.02217 0.67048,-1.49579 0.0874,-0.78322 -0.0154,-0.85234 -1.13575,-0.76353 -2.13333,0.16912 -2.76202,0.41075 -2.99725,1.15193 -0.12572,0.39598 -0.0377,0.94995 0.1956,1.23103 0.59525,0.7172 2.57373,0.64235 3.26692,-0.12358 z m -24.28019,-8.71586 c -0.29334,-0.76442 0.45137,-1.48332 0.98442,-0.95028 0.45051,0.45052 0.17142,1.50187 -0.39869,1.50187 -0.20573,0 -0.46931,-0.24821 -0.58573,-0.55159 z"
       id="path2167-2"
       inkscape:connector-curvature="0" />
  </g>
</svg>
