<?xml version="1.0" encoding="UTF-8" standalone="no"?>
<!-- Created with Inkscape (http://www.inkscape.org/) -->

<svg
   xmlns:dc="http://purl.org/dc/elements/1.1/"
   xmlns:cc="http://creativecommons.org/ns#"
   xmlns:rdf="http://www.w3.org/1999/02/22-rdf-syntax-ns#"
   xmlns:svg="http://www.w3.org/2000/svg"
   xmlns="http://www.w3.org/2000/svg"
   xmlns:sodipodi="http://sodipodi.sourceforge.net/DTD/sodipodi-0.dtd"
   xmlns:inkscape="http://www.inkscape.org/namespaces/inkscape"
   width="629.37384"
   height="196.5153"
   viewBox="0 0 166.52224 51.995002"
   version="1.1"
   id="svg2766"
   inkscape:version="0.92.2 (5c3e80d, 2017-08-06)"
   sodipodi:docname="logoBiEiVi_sobreblanco.svg">
  <defs
     id="defs2760" />
  <sodipodi:namedview
     id="base"
     pagecolor="#ffffff"
     bordercolor="#666666"
     borderopacity="1.0"
     inkscape:pageopacity="0.0"
     inkscape:pageshadow="2"
     inkscape:zoom="0.35"
     inkscape:cx="-211.84185"
     inkscape:cy="-348.32758"
     inkscape:document-units="mm"
     inkscape:current-layer="layer1"
     showgrid="false"
     inkscape:window-width="1366"
     inkscape:window-height="705"
     inkscape:window-x="-8"
     inkscape:window-y="-8"
     inkscape:window-maximized="1"
     units="px"
     fit-margin-top="0"
     fit-margin-left="0"
     fit-margin-right="0"
     fit-margin-bottom="0"
     inkscape:pagecheckerboard="true" />
  <metadata
     id="metadata2763">
    <rdf:RDF>
      <cc:Work
         rdf:about="">
        <dc:format>image/svg+xml</dc:format>
        <dc:type
           rdf:resource="http://purl.org/dc/dcmitype/StillImage" />
        <dc:title></dc:title>
      </cc:Work>
    </rdf:RDF>
  </metadata>
  <g
     inkscape:label="Capa 1"
     inkscape:groupmode="layer"
     id="layer1"
     transform="translate(-1.9992412,-4.677213)">
    <g
       id="g2147"
       transform="matrix(1.1430671,0,0,1.1430671,-20.555242,-125.91554)">
      <path
         inkscape:connector-curvature="0"
         id="path4706"
         d="m 41.272479,120.4474 0.0888,39.28754 20.636897,-43.5942 z"
         style="fill:#ff7400;fill-opacity:1;stroke:#d45500;stroke-width:0;stroke-linecap:butt;stroke-linejoin:miter;stroke-miterlimit:4;stroke-dasharray:none;stroke-opacity:1" />
      <path
         inkscape:connector-curvature="0"
         id="path4708"
         d="m 19.817316,114.70191 20.458965,4.74929 20.725836,-4.56302 z"
         style="fill:#399271;fill-opacity:1;stroke:#399271;stroke-width:0;stroke-linecap:butt;stroke-linejoin:miter;stroke-miterlimit:4;stroke-dasharray:none;stroke-opacity:1" />
      <path
         inkscape:connector-curvature="0"
         id="path4706-0"
         d="m 40.276281,120.4474 -0.08808,39.28754 -20.456945,-43.5942 z"
         style="fill:#073763;fill-opacity:1;stroke:#800080;stroke-width:0;stroke-linecap:butt;stroke-linejoin:miter;stroke-miterlimit:4;stroke-dasharray:none;stroke-opacity:1" />
      <path
         inkscape:connector-curvature="0"
         id="path4725"
         d="m 51.639243,139.50423 -8.176266,17.73616 h 16.10093 l -6.037859,-20.75508 -0.251464,-0.50318 z"
         style="fill:#399271;fill-opacity:1;stroke:#399271;stroke-width:0.18825684;stroke-linecap:butt;stroke-linejoin:miter;stroke-miterlimit:4;stroke-dasharray:none;stroke-opacity:1" />
      <path
         inkscape:connector-curvature="0"
         id="path2128"
         d="m 69.55927,136.24244 c -0.834583,-0.8346 -0.834583,-20.12704 0,-20.96162 0.849524,-0.84953 10.29751,-0.78306 12.380072,0.087 1.993541,0.83294 3.018469,3.03601 2.607277,5.60428 -0.16176,1.01039 -0.716708,2.18285 -1.233195,2.60545 -0.909394,0.74409 -0.886543,0.81834 0.72312,2.34992 1.449325,1.37903 1.662187,1.89206 1.662187,4.00605 0,5.33029 -2.362867,6.89929 -10.390133,6.89929 -3.356372,0 -5.365167,-0.20632 -5.749328,-0.59047 z m 11.246391,-3.76136 c 1.416427,-1.14697 1.532271,-3.85144 0.206493,-4.82089 -0.572822,-0.41885 -2.256942,-0.66843 -4.510519,-0.66843 h -3.596379 v 3.19837 3.19837 h 3.389886 c 2.561256,0 3.663815,-0.22182 4.510519,-0.90742 z m -1.121096,-9.6997 c 1.275463,-0.89336 1.430151,-2.76363 0.320366,-3.87341 -0.542563,-0.54256 -1.716873,-0.77323 -3.936452,-0.77323 h -3.163223 v 2.70632 2.70631 h 2.842854 c 1.776629,0 3.253015,-0.28729 3.936455,-0.76599 z m 9.967933,13.09975 c -0.736502,-1.37616 -0.666743,-14.43984 0.0811,-15.1877 0.886617,-0.88661 2.262544,-0.71137 2.836616,0.36131 0.280154,0.52346 0.509369,3.93975 0.509369,7.59173 0,5.38025 -0.146697,6.78667 -0.773233,7.41319 -1.041042,1.04106 -2.037012,0.97404 -2.653852,-0.17853 z m 17.317712,0.53996 c -0.48062,-0.30506 -0.59435,-2.83397 -0.49206,-10.94074 l 0.13307,-10.54397 6.39196,-0.13855 c 5.50586,-0.1194 6.4752,-0.0247 6.99272,0.68304 0.41894,0.57293 0.45239,1.09896 0.11051,1.73778 -0.42781,0.79939 -1.11517,0.91615 -5.39355,0.91615 h -4.90325 v 2.70631 2.70631 h 3.90132 c 4.08191,0 5.82333,0.7718 5.23002,2.31795 -0.15083,0.39319 -0.27433,0.80748 -0.27433,0.92067 0,0.11325 -1.99283,0.20578 -4.42849,0.20578 h -4.42852 v 3.19836 3.19837 h 4.90325 c 4.34084,0 4.96156,0.10896 5.41163,0.94996 0.38376,0.71704 0.31908,1.13926 -0.26386,1.7222 -0.61444,0.61443 -1.94658,0.77072 -6.51875,0.76472 -3.16058,-0.004 -6.02782,-0.18608 -6.37164,-0.40429 z m 17.60107,-0.0688 c -0.58514,-0.36915 -0.77116,-1.88947 -0.89765,-7.33736 -0.16645,-7.16737 0.18603,-8.9119 1.80067,-8.9119 1.79999,0 2.04933,0.9738 2.04933,8.00368 0,8.12555 -0.57905,9.74276 -2.95235,8.24558 z m 23.24382,-0.13446 c -0.27248,-0.33829 -2.31491,-4.92786 -4.53871,-10.19902 -4.19927,-9.95363 -4.40331,-11.08244 -2.00347,-11.08244 0.94607,0 1.53975,1.05064 4.37488,7.74201 1.80417,4.2581 3.4181,7.74555 3.58651,7.7499 0.16849,0.004 1.583,-3.25816 3.14352,-7.24997 1.56051,-3.9918 3.06402,-7.5453 3.34113,-7.89664 0.77367,-0.98085 2.535,-0.50827 2.71093,0.72736 0.14542,1.0208 -6.54988,17.38675 -8.06598,19.71673 -0.80159,1.23187 -1.79798,1.42424 -2.54881,0.49207 z m 14.64456,0.13446 c -0.58515,-0.36915 -0.77115,-1.88947 -0.89767,-7.33736 -0.16646,-7.16737 0.18607,-8.9119 1.80067,-8.9119 1.79999,0 2.04935,0.9738 2.04935,8.00368 0,8.12555 -0.57906,9.74276 -2.95235,8.24558 z M 89.3321,116.93341 c -0.546315,-1.42367 0.04498,-2.48668 1.474365,-2.65053 1.793516,-0.20555 2.482997,0.48843 2.080101,2.0937 -0.253404,1.00964 -0.618097,1.26617 -1.800028,1.26617 -0.836936,0 -1.600743,-0.30883 -1.754438,-0.70934 z m 34.532,-0.17742 c -0.53196,-1.67606 0.19189,-2.62512 1.87711,-2.46113 1.34582,0.13092 1.53639,0.3326 1.53639,1.62567 0,1.2974 -0.18859,1.49447 -1.55714,1.62724 -1.18232,0.11474 -1.62914,-0.0759 -1.85636,-0.79178 z m 37.88836,0 c -0.53194,-1.67606 0.19189,-2.62512 1.87714,-2.46113 1.34581,0.13092 1.53636,0.3326 1.53636,1.62567 0,1.2974 -0.18855,1.49447 -1.55712,1.62724 -1.18234,0.11474 -1.62914,-0.0759 -1.85638,-0.79178 z"
         style="fill:#000000;stroke-width:0.49205673" />
      <path
         inkscape:connector-curvature="0"
         id="path2167"
         d="m 74.644192,150.63239 v -5.67656 l 2.811356,0.16275 c 3.397415,0.19668 4.227801,0.74943 4.227801,2.81428 0,1.1384 -0.170363,1.46742 -1.009048,1.94878 l -1.00905,0.57909 1.097044,0.5484 c 0.780169,0.38997 1.13038,0.8402 1.212508,1.55877 0.309798,2.71083 -1.075787,3.74102 -5.031582,3.74102 h -2.299029 z m 5.631331,3.91675 c 0.387151,-0.38717 0.703906,-1.09089 0.703906,-1.56386 0,-1.24664 -1.240682,-1.95573 -3.421906,-1.95573 h -1.857458 v 2.11175 2.11175 h 1.935769 c 1.466489,0 2.106412,-0.17064 2.639689,-0.70391 z m -0.201118,-5.12853 c 0.793804,-0.79381 0.683155,-2.13155 -0.22916,-2.77057 -0.442981,-0.31028 -1.511464,-0.54789 -2.463698,-0.54789 h -1.681482 v 1.93576 1.93577 h 1.910627 c 1.26766,0 2.096755,-0.18611 2.463713,-0.55307 z m 5.915309,6.52349 c -1.126162,-0.45243 -1.4907,-1.70291 -1.4907,-5.11343 0,-2.40424 0.100433,-2.96873 0.52793,-2.96873 0.426752,0 0.527943,0.55835 0.527943,2.91333 0,3.49792 0.493038,4.47778 2.253123,4.47778 1.896222,0 2.477374,-0.9831 2.62241,-4.43617 0.09391,-2.23633 0.243712,-2.95494 0.615924,-2.95494 0.393803,0 0.491814,0.84175 0.491814,4.22349 0,3.51958 -0.08793,4.22349 -0.52793,4.22349 -0.290363,0 -0.527943,-0.23757 -0.527943,-0.52793 0,-0.65688 -0.331907,-0.65383 -1.211124,0.0107 -0.761293,0.5758 -2.074965,0.63662 -3.281447,0.15193 z m 9.939387,-0.12651 c -1.2681,-0.5525 -1.92723,-1.8406 -1.92723,-3.76621 0,-2.55611 1.4578,-4.18945 3.73919,-4.18945 1.36575,0 2.948009,1.78005 2.948009,3.31652 v 1.25892 h -2.815669 c -3.176896,0 -3.531736,0.3718 -1.90624,1.9973 0.80709,0.80708 1.10414,0.88637 2.63969,0.70449 1.31138,-0.15531 1.730269,-0.0911 1.730269,0.26539 0,0.92693 -2.657119,1.17591 -4.408019,0.41304 z m 3.7041,-5.0243 c 0,-1.38625 -2.16616,-2.4159 -3.37891,-1.60614 -0.3836,0.25614 -1.196548,1.61172 -1.196548,1.99523 0,0.10949 1.029468,0.19913 2.287728,0.19913 1.90309,0 2.28773,-0.099 2.28773,-0.58822 z m 3.519589,1.29212 c 0,-3.51957 0.0879,-4.22348 0.52795,-4.22348 0.30595,0 0.52793,0.3189 0.52793,0.75847 0,0.74877 0.009,0.7499 0.74089,0.0879 0.98157,-0.88831 3.56648,-0.91317 4.43795,-0.0426 0.89817,0.89715 1.17136,7.64321 0.30952,7.64321 -0.46809,0 -0.56092,-0.4822 -0.56092,-2.91331 0,-3.49794 -0.49305,-4.47779 -2.25315,-4.47779 -1.89623,0 -2.47739,0.9831 -2.62242,4.43617 -0.0939,2.23633 -0.2437,2.95493 -0.61592,2.95493 -0.3938,0 -0.49183,-0.84176 -0.49183,-4.22349 z m 10.28718,3.79051 c -0.43977,-0.21192 -0.88962,-0.7441 -0.99967,-1.18261 -0.46873,-1.86754 0.68468,-2.84017 3.80654,-3.20991 1.78069,-0.2109 2.02543,-0.574 1.30022,-1.92906 -0.34499,-0.64463 -0.60208,-0.69983 -2.31932,-0.498 -2.46626,0.28986 -2.45318,-0.50688 0.0163,-0.99139 1.42671,-0.2799 1.7886,-0.22606 2.61347,0.3889 0.91805,0.68442 0.96159,0.86076 1.05775,4.28443 0.0663,2.35664 -0.0273,3.57062 -0.27501,3.57062 -0.20642,0 -0.46497,-0.23365 -0.57456,-0.51923 -0.17562,-0.45766 -0.31829,-0.45766 -1.20332,0 -1.16471,0.60229 -2.29266,0.63073 -3.4224,0.0862 z m 3.81283,-1.34844 c 0.40427,-0.40428 0.67701,-1.06663 0.61593,-1.49582 -0.0971,-0.68186 -0.29142,-0.75756 -1.69344,-0.65957 -1.90846,0.13338 -3.02004,1.1375 -2.44622,2.20972 0.4999,0.93406 2.5672,0.90219 3.52373,-0.0543 z m 11.07452,1.1655 c -0.70849,-1.80468 -3.70505,-10.27083 -3.70505,-10.4678 0,-0.12677 0.2615,-0.17932 0.58112,-0.11679 0.3973,0.0778 1.10344,1.60288 2.23246,4.82161 l 1.65139,4.70778 1.68512,-4.79578 c 1.33294,-3.79345 1.81945,-4.79578 2.32777,-4.79578 0.58001,0 0.51986,0.33441 -0.61722,3.43157 -0.69292,1.88738 -1.58947,4.42147 -1.99233,5.63134 -0.74982,2.25186 -1.644,2.90652 -2.16326,1.58379 z m 6.85368,-3.60757 c 0,-3.98885 0.0392,-4.22348 0.70392,-4.22348 0.66479,0 0.70391,0.23463 0.70391,4.22348 0,3.98885 -0.0392,4.22349 -0.70391,4.22349 -0.66481,0 -0.70392,-0.23464 -0.70392,-4.22349 z m 4.22349,-1.75977 c 0,-5.08384 0.0794,-5.9833 0.52793,-5.9833 0.41448,0 0.52794,0.48583 0.52794,2.26076 v 2.26075 l 1.07538,-0.53647 c 1.43134,-0.71406 3.26066,-0.35289 4.18873,0.82694 0.53422,0.67916 0.71917,1.43296 0.71917,2.93109 0,1.49815 -0.18495,2.25196 -0.71917,2.93109 -0.94322,1.19914 -2.7571,1.54115 -4.2428,0.79998 -1.37902,-0.68794 -1.37326,-0.6878 -1.37326,-0.0355 0,0.29036 -0.15839,0.52794 -0.35197,0.52794 -0.22084,0 -0.35195,-2.22906 -0.35195,-5.98328 z m 5.07771,4.37486 c 1.16907,-1.16907 1.14828,-4.47742 -0.0336,-5.3416 -0.99529,-0.72779 -2.8183,-0.54702 -3.44039,0.34112 -0.81094,1.1578 -0.72037,3.9727 0.15605,4.8491 0.84162,0.84165 2.54972,0.91957 3.31792,0.15138 z m 4.42514,-2.61509 c 0,-3.51957 0.088,-4.22348 0.52794,-4.22348 0.33858,0 0.53196,0.34715 0.53912,0.96789 0.009,0.83256 0.0712,0.8898 0.43996,0.40944 0.95112,-1.23882 3.06844,-1.82492 3.06844,-0.8494 0,0.29037 -0.30382,0.52794 -0.67514,0.52794 -2.01281,0 -2.84444,1.43551 -2.84444,4.90993 0,1.97085 -0.10855,2.48117 -0.52794,2.48117 -0.43996,0 -0.52794,-0.7039 -0.52794,-4.22349 z m 6.76551,3.67561 c -0.54649,-0.38278 -0.78223,-0.90711 -0.78223,-1.73983 0,-1.55099 0.92855,-2.19855 3.58322,-2.49889 2.18242,-0.24692 2.40544,-0.52988 1.47002,-1.86536 -0.51419,-0.73411 -0.76975,-0.80261 -2.31249,-0.61989 -1.27285,0.15074 -1.69731,0.0919 -1.59494,-0.22089 0.21448,-0.65546 2.59192,-1.13718 3.69596,-0.74891 1.40529,0.49421 1.8344,1.69795 1.84024,5.16203 0.004,2.50511 -0.0932,3.07962 -0.52275,3.07962 -0.29036,0 -0.52793,-0.23756 -0.52793,-0.52792 0,-0.65106 -0.0354,-0.65111 -1.27962,-0.003 -1.29922,0.6776 -2.58584,0.67119 -3.56948,-0.0178 z m 3.90653,-1.14266 c 0.31589,-0.34906 0.61762,-1.02217 0.67048,-1.4958 0.0874,-0.78322 -0.0154,-0.85233 -1.13575,-0.76352 -2.13333,0.16911 -2.76202,0.41074 -2.99725,1.15192 -0.12572,0.39599 -0.0377,0.94995 0.1956,1.23103 0.59525,0.71721 2.57373,0.64235 3.26692,-0.12357 z m -24.28019,-8.71586 c -0.29334,-0.76443 0.45137,-1.48332 0.98442,-0.95028 0.45051,0.45051 0.17142,1.50187 -0.39869,1.50187 -0.20573,0 -0.46931,-0.24822 -0.58573,-0.55159 z"
         style="fill:#000000;stroke-width:0.35195768" />
    </g>
  </g>
</svg>
